<?xml version="1.0" encoding="utf-8"?>
<!-- Generator: Adobe Illustrator 18.1.1, SVG Export Plug-In . SVG Version: 6.00 Build 0)  -->
<svg version="1.1" id="Layer_1" xmlns="http://www.w3.org/2000/svg" xmlns:xlink="http://www.w3.org/1999/xlink" x="0px" y="0px"
	 viewBox="0 0 960 960" enable-background="new 0 0 960 960" xml:space="preserve">
<rect display="none" fill="#00FF00" stroke="#000000" stroke-miterlimit="10" width="960" height="960"/>
<g id="Facebook_4_">
	<path fill="#FFFFFF" d="M479.4,0C214.6,0,0,215,0,480.2c0,265.1,214.6,480.1,479.4,480.1c264.6,0,479.3-215,479.3-480.1
		C958.7,215,744.1,0,479.4,0z M720,683.2c0,14.2-14.3,24.8-28.3,24.8H581V531h52.7l9.1-76H581v-40.8c0-20.2-1.8-35.2,27.2-35.2H657
		v-61.5c-13-0.9-32.4-2.8-58.1-2.8c-53.3,0-93.9,32.6-93.9,92.6V455h-63v76h63v177H279.3c-14.1,0-14.3-10.6-14.3-24.8V270.2
		c0-14.2,0.2-30.2,14.3-30.2h412.4c14,0,28.3,16,28.3,30.2V683.2z"/>
</g>
</svg>
