<?xml version="1.0" encoding="utf-8"?>
<!-- Generator: Adobe Illustrator 18.1.1, SVG Export Plug-In . SVG Version: 6.00 Build 0)  -->
<svg version="1.1" id="Layer_1" xmlns="http://www.w3.org/2000/svg" xmlns:xlink="http://www.w3.org/1999/xlink" x="0px" y="0px"
	 viewBox="0 0 960 960" enable-background="new 0 0 960 960" xml:space="preserve">
<rect display="none" fill="#00FF00" stroke="#000000" stroke-miterlimit="10" width="960" height="960"/>
<g id="Facebook_4_" display="none">
	<path display="inline" fill="#FFFFFF" d="M479.4,0C214.6,0,0,215,0,480.2c0,265.1,214.6,480.1,479.4,480.1
		c264.6,0,479.3-215,479.3-480.1C958.7,215,744.1,0,479.4,0z M720,683.2c0,14.2-14.3,24.8-28.3,24.8H581V531h52.7l9.1-76H581v-40.8
		c0-20.2-1.8-35.2,27.2-35.2H657v-61.5c-13-0.9-32.4-2.8-58.1-2.8c-53.3,0-93.9,32.6-93.9,92.6V455h-63v76h63v177H279.3
		c-14.1,0-14.3-10.6-14.3-24.8V270.2c0-14.2,0.2-30.2,14.3-30.2h412.4c14,0,28.3,16,28.3,30.2V683.2z"/>
</g>
<g id="Twitter_5_">
	<path fill="#FFFFFF" d="M479.2,0C215.1,0,0.9,215.3,0.9,480.8c0,265.4,214.1,480.7,478.3,480.7c264,0,478.2-215.3,478.2-480.7
		C957.4,215.3,743.2,0,479.2,0z M661,378.9c0.1,4.3,0.3,8.6,0.3,12.9c0,131.8-97.4,283.9-275.4,283.9c-54.7,0-105.6-16.6-148.4-44.8
		c7.6,0.9,15.2,1.4,23.1,1.4c45.3,0,87.2-16,120.3-42.7c-42.4-0.9-78.1-29.6-90.4-69.3c5.9,1.1,12,1.8,18.1,1.8
		c8.9,0,18.3-1.3,26.4-3.5c-44.3-9.1-76.9-49.5-76.9-97.9v-1.1c13,7.3,27.3,11.9,43.2,12.4c-26.1-17.9-43.5-48.5-43.5-83.1
		c0-18.2,4.6-35.5,12.9-50.1c47.7,60.4,118.9,100,199.4,104.2c-1.8-7.3-2.6-14.9-2.6-22.7c0-55.1,43.3-99.8,96.7-99.8
		c27.8,0,53,12,70.7,31.4c22-4.4,42.7-12.7,61.5-24.2c-7.2,23.3-22.6,42.9-42.6,55.2c19.7-2.4,38.3-7.7,55.5-15.7
		C696.4,347.2,679.9,364.8,661,378.9z"/>
</g>
</svg>
