<?xml version="1.0" encoding="utf-8"?>
<!-- Generator: Adobe Illustrator 18.1.1, SVG Export Plug-In . SVG Version: 6.00 Build 0)  -->
<svg version="1.1" id="Layer_1" xmlns="http://www.w3.org/2000/svg" xmlns:xlink="http://www.w3.org/1999/xlink" x="0px" y="0px"
	 viewBox="0 0 536.3 272" enable-background="new 0 0 536.3 272" xml:space="preserve">
<rect x="-304.7" y="-204.2" display="none" fill="#999999" stroke="#000000" stroke-miterlimit="10" width="960" height="960"/>
<g>
	<rect x="0" y="0" fill="none" width="536.3" height="272"/>
	<path fill="#FFFFFF" d="M442.1,1.3c2.7,0,5.1,0.3,7.1,0.9c2,0.6,3.7,1.5,5,2.7c1.3,1.2,2.3,2.6,3,4.2c0.7,1.6,1,3.5,1,5.5
		c0,2-0.4,3.8-1,5.5c-0.7,1.7-1.7,3.1-3.1,4.3c-1.4,1.2-3,2.1-5,2.8c-2,0.7-4.3,1-6.9,1h-6.9v16.1h-5.8v-43H442.1z M442.1,23.5
		c1.7,0,3.1-0.2,4.4-0.7c1.3-0.4,2.3-1.1,3.2-1.8c0.9-0.8,1.5-1.7,2-2.8c0.4-1.1,0.7-2.3,0.7-3.6c0-2.7-0.8-4.9-2.5-6.4
		c-1.7-1.5-4.3-2.3-7.7-2.3h-6.9v17.7H442.1z"/>
	<path fill="#FFFFFF" d="M462.4,18.1c1.7-1.6,3.5-2.8,5.4-3.6c1.9-0.8,4.1-1.2,6.5-1.2c1.7,0,3.2,0.3,4.5,0.8
		c1.3,0.6,2.4,1.3,3.3,2.3c0.9,1,1.6,2.2,2,3.6c0.5,1.4,0.7,3,0.7,4.7v19.4h-2.4c-0.5,0-0.9-0.1-1.2-0.3s-0.5-0.5-0.7-1l-0.6-2.9
		c-0.8,0.7-1.6,1.4-2.3,2c-0.8,0.6-1.6,1-2.4,1.4c-0.8,0.4-1.7,0.7-2.7,0.9c-1,0.2-2,0.3-3.2,0.3c-1.2,0-2.3-0.2-3.3-0.5
		s-1.9-0.8-2.7-1.5c-0.8-0.7-1.4-1.5-1.8-2.5c-0.5-1-0.7-2.2-0.7-3.6c0-1.2,0.3-2.4,1-3.5c0.7-1.1,1.7-2.1,3.2-3
		c1.5-0.9,3.4-1.6,5.8-2.1c2.4-0.5,5.3-0.9,8.8-0.9v-2.4c0-2.4-0.5-4.1-1.5-5.4c-1-1.2-2.5-1.8-4.5-1.8c-1.3,0-2.4,0.2-3.3,0.5
		c-0.9,0.3-1.7,0.7-2.3,1.1c-0.7,0.4-1.2,0.8-1.7,1.1s-0.9,0.5-1.4,0.5c-0.4,0-0.7-0.1-0.9-0.3c-0.3-0.2-0.5-0.4-0.7-0.7L462.4,18.1
		z M479.7,30.6c-2.5,0.1-4.6,0.3-6.3,0.6c-1.7,0.3-3.1,0.7-4.2,1.2c-1.1,0.5-1.9,1.1-2.4,1.8c-0.5,0.7-0.7,1.4-0.7,2.3
		c0,0.8,0.1,1.5,0.4,2.1s0.6,1.1,1.1,1.4s1,0.6,1.6,0.8c0.6,0.2,1.3,0.3,2,0.3c0.9,0,1.8-0.1,2.6-0.3c0.8-0.2,1.5-0.5,2.2-0.8
		c0.7-0.4,1.3-0.8,2-1.3c0.6-0.5,1.2-1.1,1.8-1.7V30.6z"/>
	<path fill="#FFFFFF" d="M510.7,18.9c-0.2,0.4-0.6,0.7-1.1,0.7c-0.3,0-0.6-0.1-1-0.3s-0.8-0.5-1.4-0.7c-0.6-0.3-1.2-0.5-2-0.8
		c-0.8-0.2-1.7-0.3-2.7-0.3c-0.9,0-1.7,0.1-2.4,0.3c-0.7,0.2-1.3,0.5-1.8,0.9c-0.5,0.4-0.9,0.9-1.2,1.4c-0.3,0.5-0.4,1.1-0.4,1.7
		c0,0.8,0.2,1.4,0.7,2c0.4,0.5,1,1,1.8,1.4s1.6,0.7,2.5,1c0.9,0.3,1.9,0.6,2.9,0.9c1,0.3,2,0.7,2.9,1.1c0.9,0.4,1.8,0.9,2.5,1.5
		s1.3,1.3,1.8,2.2c0.5,0.9,0.7,1.9,0.7,3.1c0,1.4-0.3,2.7-0.8,3.9c-0.5,1.2-1.2,2.2-2.2,3.1c-1,0.9-2.2,1.6-3.6,2.1
		c-1.4,0.5-3.1,0.8-4.9,0.8c-2.1,0-4-0.3-5.8-1s-3.2-1.6-4.4-2.7l1.3-2c0.2-0.3,0.4-0.5,0.6-0.6c0.2-0.1,0.5-0.2,0.8-0.2
		c0.4,0,0.7,0.1,1.1,0.4c0.4,0.3,0.9,0.6,1.5,0.9c0.6,0.3,1.3,0.6,2.1,0.9c0.8,0.3,1.8,0.4,3.1,0.4c1,0,2-0.1,2.7-0.4
		c0.8-0.3,1.4-0.6,1.9-1.1c0.5-0.5,0.9-1,1.2-1.6c0.3-0.6,0.4-1.2,0.4-1.9c0-0.8-0.2-1.5-0.7-2.1c-0.5-0.5-1-1-1.8-1.4
		c-0.7-0.4-1.6-0.7-2.5-1s-1.9-0.6-2.9-0.9c-1-0.3-2-0.7-2.9-1.1c-1-0.4-1.8-0.9-2.5-1.5c-0.7-0.6-1.3-1.4-1.8-2.3s-0.7-2-0.7-3.3
		c0-1.2,0.2-2.3,0.7-3.3c0.5-1.1,1.2-2,2.1-2.8s2-1.5,3.4-1.9c1.3-0.5,2.9-0.7,4.6-0.7c2,0,3.8,0.3,5.4,0.9c1.6,0.6,3,1.5,4.1,2.6
		L510.7,18.9z"/>
	<path fill="#FFFFFF" d="M528.3,44.7c-2.4,0-4.2-0.7-5.5-2s-1.9-3.3-1.9-5.8V18.3h-3.7c-0.3,0-0.6-0.1-0.8-0.3
		c-0.2-0.2-0.3-0.5-0.3-0.9V15l5-0.6l1.2-9.4c0.1-0.3,0.2-0.5,0.4-0.7c0.2-0.2,0.5-0.3,0.8-0.3h2.7v10.5h8.8v3.9h-8.8v18.2
		c0,1.3,0.3,2.2,0.9,2.9c0.6,0.6,1.4,0.9,2.4,0.9c0.6,0,1-0.1,1.5-0.2s0.8-0.3,1.1-0.5c0.3-0.2,0.6-0.3,0.8-0.5
		c0.2-0.1,0.4-0.2,0.6-0.2c0.3,0,0.5,0.2,0.8,0.5l1.6,2.6c-0.9,0.9-2,1.5-3.3,2C531,44.5,529.7,44.7,528.3,44.7z"/>
	<path fill="#FFFFFF" d="M354.5,73.3c2.7,0,5.1,0.3,7.1,0.9c2,0.6,3.7,1.5,5,2.7c1.3,1.2,2.3,2.6,3,4.2c0.7,1.6,1,3.5,1,5.5
		c0,2-0.4,3.8-1,5.5c-0.7,1.7-1.7,3.1-3.1,4.3c-1.4,1.2-3,2.1-5,2.8c-2,0.7-4.3,1-6.9,1h-6.9v16.1h-5.8v-43H354.5z M354.5,95.5
		c1.7,0,3.1-0.2,4.4-0.7c1.3-0.4,2.3-1.1,3.2-1.8c0.9-0.8,1.5-1.7,2-2.8c0.4-1.1,0.7-2.3,0.7-3.6c0-2.7-0.8-4.9-2.5-6.4
		c-1.7-1.5-4.3-2.3-7.7-2.3h-6.9v17.7H354.5z"/>
	<path fill="#FFFFFF" d="M381,91.9c1-2.1,2.1-3.7,3.5-4.9c1.4-1.2,3.1-1.8,5.1-1.8c0.6,0,1.3,0.1,1.8,0.2c0.6,0.1,1.1,0.4,1.6,0.7
		l-0.4,4c-0.1,0.5-0.4,0.8-0.9,0.8c-0.3,0-0.7-0.1-1.2-0.2s-1.2-0.2-1.8-0.2c-1,0-1.8,0.1-2.6,0.4s-1.4,0.7-2,1.2
		c-0.6,0.6-1.1,1.2-1.6,2s-0.9,1.7-1.3,2.8v19.2H376V85.9h3.1c0.6,0,1,0.1,1.2,0.3c0.2,0.2,0.4,0.6,0.5,1.1L381,91.9z"/>
	<path fill="#FFFFFF" d="M421.2,112c-0.7,0.8-1.5,1.5-2.4,2.1s-1.9,1.1-3,1.5c-1.1,0.4-2.1,0.7-3.3,0.9c-1.1,0.2-2.2,0.3-3.3,0.3
		c-2.1,0-4-0.4-5.8-1.1c-1.8-0.7-3.3-1.8-4.6-3.1c-1.3-1.4-2.3-3.1-3-5.1c-0.7-2-1.1-4.3-1.1-7c0-2.1,0.3-4.1,1-5.9
		c0.6-1.8,1.6-3.4,2.8-4.8c1.2-1.3,2.7-2.4,4.5-3.2c1.8-0.8,3.7-1.2,5.9-1.2c1.8,0,3.5,0.3,5.1,0.9c1.5,0.6,2.9,1.5,4,2.6
		c1.1,1.2,2,2.6,2.7,4.3c0.6,1.7,1,3.6,1,5.8c0,0.8-0.1,1.4-0.3,1.7c-0.2,0.3-0.5,0.4-1,0.4h-20.3c0.1,1.9,0.3,3.6,0.8,5
		c0.5,1.4,1.1,2.6,2,3.6c0.8,1,1.8,1.7,3,2.1c1.2,0.5,2.5,0.7,3.9,0.7c1.3,0,2.5-0.2,3.5-0.5c1-0.3,1.8-0.6,2.5-1
		c0.7-0.4,1.3-0.7,1.8-1c0.5-0.3,0.9-0.5,1.2-0.5c0.4,0,0.8,0.2,1,0.5L421.2,112z M416.9,97.7c0-1.2-0.2-2.4-0.5-3.4
		c-0.3-1-0.9-1.9-1.5-2.7s-1.5-1.3-2.4-1.7c-1-0.4-2.1-0.6-3.3-0.6c-2.6,0-4.6,0.7-6.1,2.2c-1.5,1.5-2.4,3.6-2.8,6.2H416.9z"/>
	<path fill="#FFFFFF" d="M446,90.9c-0.2,0.4-0.6,0.7-1.1,0.7c-0.3,0-0.6-0.1-1-0.3s-0.8-0.5-1.4-0.7c-0.6-0.3-1.2-0.5-2-0.8
		c-0.8-0.2-1.7-0.3-2.7-0.3c-0.9,0-1.7,0.1-2.4,0.3c-0.7,0.2-1.3,0.5-1.8,0.9c-0.5,0.4-0.9,0.9-1.2,1.4c-0.3,0.5-0.4,1.1-0.4,1.7
		c0,0.8,0.2,1.4,0.7,2c0.4,0.5,1,1,1.8,1.4s1.6,0.7,2.5,1c0.9,0.3,1.9,0.6,2.9,0.9c1,0.3,2,0.7,2.9,1.1c0.9,0.4,1.8,0.9,2.5,1.5
		s1.3,1.3,1.8,2.2s0.7,1.9,0.7,3.1c0,1.4-0.3,2.7-0.8,3.9c-0.5,1.2-1.2,2.2-2.2,3.1c-1,0.9-2.2,1.6-3.6,2.1
		c-1.4,0.5-3.1,0.8-4.9,0.8c-2.1,0-4-0.3-5.8-1s-3.2-1.6-4.4-2.7l1.3-2c0.2-0.3,0.4-0.5,0.6-0.6c0.2-0.1,0.5-0.2,0.8-0.2
		c0.4,0,0.7,0.1,1.1,0.4c0.4,0.3,0.9,0.6,1.5,0.9c0.6,0.3,1.3,0.6,2.1,0.9c0.8,0.3,1.8,0.4,3.1,0.4c1,0,2-0.1,2.7-0.4
		c0.8-0.3,1.4-0.6,1.9-1.1c0.5-0.5,0.9-1,1.2-1.6c0.3-0.6,0.4-1.2,0.4-1.9c0-0.8-0.2-1.5-0.7-2.1c-0.5-0.5-1-1-1.8-1.4
		c-0.7-0.4-1.6-0.7-2.5-1s-1.9-0.6-2.9-0.9c-1-0.3-2-0.7-2.9-1.1c-1-0.4-1.8-0.9-2.5-1.5c-0.7-0.6-1.3-1.4-1.8-2.3s-0.7-2-0.7-3.3
		c0-1.2,0.2-2.3,0.7-3.3c0.5-1.1,1.2-2,2.1-2.8s2-1.5,3.4-1.9c1.3-0.5,2.9-0.7,4.6-0.7c2,0,3.8,0.3,5.4,0.9c1.6,0.6,3,1.5,4.1,2.6
		L446,90.9z"/>
	<path fill="#FFFFFF" d="M478.9,112c-0.7,0.8-1.5,1.5-2.4,2.1s-1.9,1.1-3,1.5c-1.1,0.4-2.1,0.7-3.3,0.9c-1.1,0.2-2.2,0.3-3.3,0.3
		c-2.1,0-4-0.4-5.8-1.1c-1.8-0.7-3.3-1.8-4.6-3.1c-1.3-1.4-2.3-3.1-3-5.1c-0.7-2-1.1-4.3-1.1-7c0-2.1,0.3-4.1,1-5.9
		c0.6-1.8,1.6-3.4,2.8-4.8c1.2-1.3,2.7-2.4,4.5-3.2c1.8-0.8,3.7-1.2,5.9-1.2c1.8,0,3.5,0.3,5.1,0.9c1.5,0.6,2.9,1.5,4,2.6
		c1.1,1.2,2,2.6,2.7,4.3c0.6,1.7,1,3.6,1,5.8c0,0.8-0.1,1.4-0.3,1.7c-0.2,0.3-0.5,0.4-1,0.4h-20.3c0.1,1.9,0.3,3.6,0.8,5
		c0.5,1.4,1.1,2.6,2,3.6c0.8,1,1.8,1.7,3,2.1c1.2,0.5,2.5,0.7,3.9,0.7c1.3,0,2.5-0.2,3.5-0.5c1-0.3,1.8-0.6,2.5-1
		c0.7-0.4,1.3-0.7,1.8-1c0.5-0.3,0.9-0.5,1.2-0.5c0.4,0,0.8,0.2,1,0.5L478.9,112z M474.6,97.7c0-1.2-0.2-2.4-0.5-3.4
		c-0.3-1-0.9-1.9-1.5-2.7s-1.5-1.3-2.4-1.7c-1-0.4-2.1-0.6-3.3-0.6c-2.6,0-4.6,0.7-6.1,2.2c-1.5,1.5-2.4,3.6-2.8,6.2H474.6z"/>
	<path fill="#FFFFFF" d="M491,90.3c0.7-0.7,1.4-1.4,2.1-2c0.7-0.6,1.5-1.1,2.4-1.5c0.8-0.4,1.7-0.8,2.6-1c0.9-0.2,1.9-0.3,3-0.3
		c1.7,0,3.1,0.3,4.4,0.8c1.3,0.6,2.3,1.3,3.2,2.3c0.8,1,1.5,2.2,1.9,3.6c0.4,1.4,0.7,3,0.7,4.7v19.4h-5.4V96.9
		c0-2.3-0.5-4.1-1.6-5.4c-1.1-1.3-2.6-1.9-4.8-1.9c-1.6,0-3.1,0.4-4.4,1.1c-1.4,0.8-2.6,1.8-3.8,3.1v22.4h-5.4V85.9h3.2
		c0.8,0,1.2,0.4,1.4,1.1L491,90.3z"/>
	<path fill="#FFFFFF" d="M528.3,116.7c-2.4,0-4.2-0.7-5.5-2s-1.9-3.3-1.9-5.8V90.3h-3.7c-0.3,0-0.6-0.1-0.8-0.3
		c-0.2-0.2-0.3-0.5-0.3-0.9V87l5-0.6l1.2-9.4c0.1-0.3,0.2-0.5,0.4-0.7c0.2-0.2,0.5-0.3,0.8-0.3h2.7v10.5h8.8v3.9h-8.8v18.2
		c0,1.3,0.3,2.2,0.9,2.9c0.6,0.6,1.4,0.9,2.4,0.9c0.6,0,1-0.1,1.5-0.2s0.8-0.3,1.1-0.5c0.3-0.2,0.6-0.3,0.8-0.5
		c0.2-0.1,0.4-0.2,0.6-0.2c0.3,0,0.5,0.2,0.8,0.5l1.6,2.6c-0.9,0.9-2,1.5-3.3,2C531,116.5,529.7,116.7,528.3,116.7z"/>
	<path fill="#FFFFFF" d="M375.2,150v15h17.7v4.7h-17.7v18.5h-5.8v-43h26.5v4.7H375.2z"/>
	<path fill="#FFFFFF" d="M424.8,157.9v30.4h-3.2c-0.8,0-1.2-0.4-1.4-1.1l-0.4-3.3c-1.3,1.5-2.8,2.6-4.4,3.5
		c-1.6,0.9-3.5,1.3-5.6,1.3c-1.7,0-3.1-0.3-4.4-0.8c-1.3-0.5-2.3-1.3-3.2-2.3s-1.5-2.2-1.9-3.6c-0.4-1.4-0.6-3-0.6-4.7v-19.4h5.3
		v19.4c0,2.3,0.5,4.1,1.6,5.3c1,1.3,2.7,1.9,4.8,1.9c1.6,0,3.1-0.4,4.4-1.1s2.6-1.8,3.8-3.1v-22.4H424.8z"/>
	<path fill="#FFFFFF" d="M442.6,188.7c-2.4,0-4.2-0.7-5.5-2s-1.9-3.3-1.9-5.8v-18.6h-3.7c-0.3,0-0.6-0.1-0.8-0.3
		c-0.2-0.2-0.3-0.5-0.3-0.9V159l5-0.6l1.2-9.4c0.1-0.3,0.2-0.5,0.4-0.7c0.2-0.2,0.5-0.3,0.8-0.3h2.7v10.5h8.8v3.9h-8.8v18.2
		c0,1.3,0.3,2.2,0.9,2.9c0.6,0.6,1.4,0.9,2.4,0.9c0.6,0,1-0.1,1.5-0.2s0.8-0.3,1.1-0.5c0.3-0.2,0.6-0.3,0.8-0.5
		c0.2-0.1,0.4-0.2,0.6-0.2c0.3,0,0.5,0.2,0.8,0.5l1.6,2.6c-0.9,0.9-2,1.5-3.3,2C445.3,188.5,444,188.7,442.6,188.7z"/>
	<path fill="#FFFFFF" d="M479.7,157.9v30.4h-3.2c-0.8,0-1.2-0.4-1.4-1.1l-0.4-3.3c-1.3,1.5-2.8,2.6-4.4,3.5
		c-1.6,0.9-3.5,1.3-5.6,1.3c-1.7,0-3.1-0.3-4.4-0.8c-1.3-0.5-2.3-1.3-3.2-2.3s-1.5-2.2-1.9-3.6c-0.4-1.4-0.6-3-0.6-4.7v-19.4h5.3
		v19.4c0,2.3,0.5,4.1,1.6,5.3c1,1.3,2.7,1.9,4.8,1.9c1.6,0,3.1-0.4,4.4-1.1s2.6-1.8,3.8-3.1v-22.4H479.7z"/>
	<path fill="#FFFFFF" d="M493.3,163.9c1-2.1,2.1-3.7,3.5-4.9c1.4-1.2,3.1-1.8,5.1-1.8c0.6,0,1.3,0.1,1.8,0.2
		c0.6,0.1,1.1,0.4,1.6,0.7l-0.4,4c-0.1,0.5-0.4,0.8-0.9,0.8c-0.3,0-0.7-0.1-1.2-0.2s-1.2-0.2-1.8-0.2c-1,0-1.8,0.1-2.6,0.4
		s-1.4,0.7-2,1.2c-0.6,0.6-1.1,1.2-1.6,2s-0.9,1.7-1.3,2.8v19.2h-5.4v-30.4h3.1c0.6,0,1,0.1,1.2,0.3c0.2,0.2,0.4,0.6,0.5,1.1
		L493.3,163.9z"/>
	<path fill="#FFFFFF" d="M533.5,184c-0.7,0.8-1.5,1.5-2.4,2.1s-1.9,1.1-3,1.5c-1.1,0.4-2.1,0.7-3.3,0.9c-1.1,0.2-2.2,0.3-3.3,0.3
		c-2.1,0-4-0.4-5.8-1.1c-1.8-0.7-3.3-1.8-4.6-3.1c-1.3-1.4-2.3-3.1-3-5.1c-0.7-2-1.1-4.3-1.1-7c0-2.1,0.3-4.1,1-5.9
		c0.6-1.8,1.6-3.4,2.8-4.8c1.2-1.3,2.7-2.4,4.5-3.2c1.8-0.8,3.7-1.2,5.9-1.2c1.8,0,3.5,0.3,5.1,0.9c1.5,0.6,2.9,1.5,4,2.6
		c1.1,1.2,2,2.6,2.7,4.3c0.6,1.7,1,3.6,1,5.8c0,0.8-0.1,1.4-0.3,1.7c-0.2,0.3-0.5,0.4-1,0.4h-20.3c0.1,1.9,0.3,3.6,0.8,5
		c0.5,1.4,1.1,2.6,2,3.6c0.8,1,1.8,1.7,3,2.1c1.2,0.5,2.5,0.7,3.9,0.7c1.3,0,2.5-0.2,3.5-0.5c1-0.3,1.8-0.6,2.5-1
		c0.7-0.4,1.3-0.7,1.8-1c0.5-0.3,0.9-0.5,1.2-0.5c0.4,0,0.8,0.2,1,0.5L533.5,184z M529.2,169.7c0-1.2-0.2-2.4-0.5-3.4
		c-0.3-1-0.9-1.9-1.5-2.7s-1.5-1.3-2.4-1.7c-1-0.4-2.1-0.6-3.3-0.6c-2.6,0-4.6,0.7-6.1,2.2c-1.5,1.5-2.4,3.6-2.8,6.2H529.2z"/>
	<path fill="#FFFFFF" d="M25.2,253.7c1.6,0,3-0.3,4.2-0.8c1.2-0.5,2.3-1.2,3.1-2.2c0.8-0.9,1.5-2.1,1.9-3.4c0.4-1.3,0.7-2.8,0.7-4.5
		v-26h8.1v26c0,2.6-0.4,5-1.2,7.2c-0.8,2.2-2,4.1-3.6,5.7c-1.5,1.6-3.4,2.8-5.7,3.7c-2.2,0.9-4.7,1.3-7.5,1.3
		c-2.8,0-5.3-0.4-7.5-1.3c-2.2-0.9-4.1-2.1-5.7-3.7c-1.6-1.6-2.7-3.5-3.6-5.7c-0.8-2.2-1.2-4.6-1.2-7.2v-26h8.1v25.9
		c0,1.7,0.2,3.2,0.7,4.5c0.4,1.3,1.1,2.5,1.9,3.4c0.9,1,1.9,1.7,3.1,2.2C22.3,253.5,23.7,253.7,25.2,253.7z"/>
	<path fill="#FFFFFF" d="M57.1,233.2c0.6-0.6,1.3-1.2,2-1.7c0.7-0.5,1.4-1,2.2-1.4c0.8-0.4,1.6-0.7,2.5-0.9c0.9-0.2,1.8-0.3,2.9-0.3
		c1.7,0,3.2,0.3,4.5,0.9c1.3,0.6,2.4,1.4,3.3,2.4c0.9,1,1.5,2.3,2,3.7c0.4,1.4,0.7,3,0.7,4.7v19.6h-7.4v-19.6c0-1.9-0.4-3.3-1.3-4.4
		c-0.9-1-2.2-1.5-3.9-1.5c-1.3,0-2.5,0.3-3.6,0.9c-1.1,0.6-2.2,1.4-3.2,2.4v22.3h-7.4v-30.8h4.5c1,0,1.6,0.4,1.9,1.3L57.1,233.2z"/>
	<path fill="#FFFFFF" d="M110.7,215.7v44.6h-4.5c-1,0-1.6-0.5-1.9-1.4l-0.6-3c-1.2,1.4-2.7,2.6-4.3,3.4c-1.6,0.9-3.5,1.3-5.6,1.3
		c-1.7,0-3.2-0.4-4.6-1.1c-1.4-0.7-2.6-1.7-3.6-3c-1-1.3-1.8-3-2.3-4.9c-0.6-2-0.8-4.2-0.8-6.7c0-2.3,0.3-4.4,0.9-6.4
		c0.6-2,1.5-3.7,2.7-5.1c1.2-1.4,2.6-2.6,4.2-3.4c1.6-0.8,3.4-1.2,5.5-1.2c1.7,0,3.2,0.3,4.4,0.8c1.2,0.5,2.3,1.3,3.3,2.2v-16.2
		H110.7z M103.3,237.3c-0.8-1-1.8-1.7-2.7-2.2c-1-0.4-2.1-0.6-3.2-0.6c-1.1,0-2.1,0.2-3,0.6c-0.9,0.4-1.7,1.1-2.3,1.9
		c-0.6,0.9-1.1,1.9-1.5,3.2c-0.3,1.3-0.5,2.9-0.5,4.6c0,1.8,0.1,3.3,0.4,4.6c0.3,1.3,0.7,2.3,1.2,3.1c0.5,0.8,1.2,1.4,2,1.7
		c0.8,0.4,1.6,0.5,2.6,0.5c1.5,0,2.8-0.3,3.9-1c1.1-0.6,2.1-1.5,3.1-2.7V237.3z"/>
	<path fill="#FFFFFF" d="M123.8,245.8c0.1,1.6,0.4,2.9,0.8,4.1c0.4,1.2,1,2.1,1.7,2.9c0.7,0.8,1.6,1.3,2.6,1.7
		c1,0.4,2.1,0.6,3.3,0.6s2.2-0.1,3.1-0.4c0.9-0.3,1.6-0.6,2.3-0.9c0.6-0.3,1.2-0.6,1.7-0.9c0.5-0.3,1-0.4,1.4-0.4
		c0.6,0,1.1,0.2,1.4,0.7l2.1,2.7c-0.8,1-1.7,1.8-2.8,2.4s-2.1,1.2-3.2,1.6c-1.1,0.4-2.2,0.7-3.4,0.8c-1.2,0.2-2.3,0.2-3.3,0.2
		c-2.1,0-4.1-0.4-6-1.1c-1.8-0.7-3.4-1.8-4.8-3.1c-1.4-1.4-2.4-3.1-3.2-5.2c-0.8-2-1.2-4.4-1.2-7.1c0-2.1,0.3-4.1,1-5.9
		c0.7-1.8,1.7-3.5,2.9-4.8c1.3-1.4,2.8-2.5,4.7-3.3c1.8-0.8,3.9-1.2,6.2-1.2c1.9,0,3.7,0.3,5.4,0.9c1.6,0.6,3,1.5,4.2,2.7
		c1.2,1.2,2.1,2.7,2.8,4.4c0.7,1.7,1,3.7,1,5.9c0,1.1-0.1,1.9-0.4,2.3c-0.2,0.4-0.7,0.6-1.4,0.6H123.8z M137.9,241.3
		c0-1-0.1-1.9-0.4-2.7c-0.3-0.8-0.7-1.6-1.2-2.2s-1.2-1.1-2.1-1.5c-0.8-0.4-1.8-0.6-2.9-0.6c-2.1,0-3.8,0.6-5.1,1.8
		c-1.2,1.2-2,3-2.4,5.2H137.9z"/>
	<path fill="#FFFFFF" d="M157.1,234.8c1-1.8,2.1-3.3,3.4-4.3c1.3-1.1,2.9-1.6,4.7-1.6c1.4,0,2.6,0.3,3.4,0.9l-0.5,5.5
		c-0.1,0.4-0.2,0.6-0.4,0.8c-0.2,0.1-0.4,0.2-0.8,0.2c-0.3,0-0.7,0-1.3-0.1s-1.2-0.2-1.7-0.2c-0.8,0-1.6,0.1-2.2,0.4
		c-0.6,0.2-1.2,0.6-1.7,1c-0.5,0.5-1,1-1.4,1.6s-0.8,1.4-1.1,2.2v19h-7.4v-30.8h4.3c0.8,0,1.3,0.1,1.6,0.4c0.3,0.3,0.5,0.8,0.6,1.5
		L157.1,234.8z"/>
	<path fill="#FFFFFF" d="M212.3,229.5l-16.8,39.2c-0.2,0.5-0.5,0.9-0.9,1.2s-0.9,0.4-1.6,0.4h-5.5l5.8-12.4l-12.4-28.5h6.5
		c0.6,0,1,0.1,1.4,0.4c0.3,0.3,0.6,0.6,0.7,1l6.5,16c0.2,0.5,0.4,1.1,0.6,1.6c0.2,0.5,0.3,1.1,0.4,1.6c0.2-0.6,0.4-1.1,0.5-1.7
		c0.2-0.5,0.4-1.1,0.6-1.6l6.2-15.9c0.2-0.4,0.4-0.7,0.8-1c0.4-0.3,0.8-0.4,1.2-0.4H212.3z"/>
	<path fill="#FFFFFF" d="M228.6,229c2.3,0,4.4,0.4,6.2,1.1c1.9,0.7,3.5,1.8,4.8,3.1c1.3,1.4,2.4,3,3.1,5c0.7,2,1.1,4.2,1.1,6.6
		c0,2.4-0.4,4.6-1.1,6.6c-0.7,2-1.7,3.6-3.1,5c-1.3,1.4-2.9,2.4-4.8,3.2s-3.9,1.1-6.2,1.1c-2.3,0-4.4-0.4-6.3-1.1s-3.5-1.8-4.8-3.2
		c-1.3-1.4-2.4-3-3.1-5c-0.7-2-1.1-4.2-1.1-6.6c0-2.4,0.4-4.6,1.1-6.6c0.7-2,1.8-3.6,3.1-5c1.3-1.4,2.9-2.4,4.8-3.1
		C224.2,229.4,226.3,229,228.6,229z M228.6,255c2.6,0,4.5-0.9,5.7-2.6c1.2-1.7,1.8-4.2,1.8-7.6c0-3.3-0.6-5.9-1.8-7.6
		c-1.2-1.7-3.1-2.6-5.7-2.6c-2.6,0-4.5,0.9-5.8,2.6s-1.9,4.3-1.9,7.6c0,3.3,0.6,5.8,1.9,7.5C224.1,254.1,226,255,228.6,255z"/>
	<path fill="#FFFFFF" d="M276,229.5v30.8h-4.5c-1,0-1.6-0.5-1.9-1.4l-0.5-2.5c-1.3,1.3-2.7,2.3-4.2,3.1c-1.5,0.8-3.3,1.2-5.4,1.2
		c-1.7,0-3.2-0.3-4.5-0.9c-1.3-0.6-2.4-1.4-3.3-2.4c-0.9-1-1.5-2.3-2-3.7c-0.5-1.4-0.7-3-0.7-4.7v-19.6h7.4V249
		c0,1.9,0.4,3.3,1.3,4.4c0.9,1,2.2,1.5,3.9,1.5c1.3,0,2.5-0.3,3.6-0.9c1.1-0.6,2.2-1.4,3.2-2.4v-22.3H276z"/>
	<path fill="#FFFFFF" d="M290.3,234.8c1-1.8,2.1-3.3,3.4-4.3c1.3-1.1,2.9-1.6,4.7-1.6c1.4,0,2.6,0.3,3.4,0.9l-0.5,5.5
		c-0.1,0.4-0.2,0.6-0.4,0.8s-0.4,0.2-0.8,0.2c-0.3,0-0.7,0-1.3-0.1c-0.6-0.1-1.2-0.2-1.7-0.2c-0.8,0-1.5,0.1-2.2,0.4
		c-0.6,0.2-1.2,0.6-1.7,1c-0.5,0.5-1,1-1.3,1.6s-0.8,1.4-1.1,2.2v19h-7.4v-30.8h4.3c0.8,0,1.3,0.1,1.6,0.4c0.3,0.3,0.5,0.8,0.6,1.5
		L290.3,234.8z"/>
	<path fill="#FFFFFF" d="M341.1,236c-0.2,0.3-0.4,0.5-0.6,0.7s-0.5,0.2-0.9,0.2c-0.4,0-0.8-0.1-1.1-0.3s-0.8-0.5-1.3-0.8
		c-0.5-0.3-1.1-0.5-1.8-0.8c-0.7-0.2-1.5-0.3-2.6-0.3c-1.3,0-2.4,0.2-3.4,0.7c-1,0.5-1.8,1.1-2.4,2c-0.7,0.9-1.1,1.9-1.5,3.2
		c-0.3,1.3-0.5,2.7-0.5,4.2c0,1.6,0.2,3.1,0.5,4.4c0.3,1.3,0.9,2.4,1.5,3.2c0.7,0.9,1.5,1.5,2.4,2c0.9,0.5,2,0.7,3.2,0.7
		s2.1-0.1,2.9-0.4c0.7-0.3,1.3-0.6,1.8-1c0.5-0.3,0.9-0.7,1.3-1c0.4-0.3,0.8-0.4,1.2-0.4c0.6,0,1,0.2,1.3,0.7l2.1,2.7
		c-0.8,1-1.7,1.8-2.7,2.4s-2,1.2-3,1.6c-1,0.4-2.1,0.7-3.2,0.8c-1.1,0.2-2.2,0.2-3.3,0.2c-1.9,0-3.7-0.4-5.4-1.1
		c-1.7-0.7-3.2-1.7-4.4-3.1c-1.3-1.4-2.3-3-3-5c-0.7-2-1.1-4.2-1.1-6.7c0-2.3,0.3-4.4,1-6.3c0.6-1.9,1.6-3.6,2.9-5
		c1.3-1.4,2.8-2.5,4.7-3.3c1.9-0.8,4-1.2,6.4-1.2c2.3,0,4.3,0.4,6,1.1c1.7,0.7,3.3,1.8,4.7,3.2L341.1,236z"/>
	<path fill="#FFFFFF" d="M361,229c2.3,0,4.4,0.4,6.2,1.1c1.9,0.7,3.5,1.8,4.8,3.1c1.3,1.4,2.4,3,3.1,5c0.7,2,1.1,4.2,1.1,6.6
		c0,2.4-0.4,4.6-1.1,6.6c-0.7,2-1.7,3.6-3.1,5c-1.3,1.4-2.9,2.4-4.8,3.2s-3.9,1.1-6.2,1.1c-2.3,0-4.4-0.4-6.3-1.1s-3.5-1.8-4.8-3.2
		c-1.3-1.4-2.4-3-3.1-5c-0.7-2-1.1-4.2-1.1-6.6c0-2.4,0.4-4.6,1.1-6.6c0.7-2,1.8-3.6,3.1-5c1.3-1.4,2.9-2.4,4.8-3.1
		C356.6,229.4,358.7,229,361,229z M361,255c2.6,0,4.5-0.9,5.7-2.6c1.2-1.7,1.8-4.2,1.8-7.6c0-3.3-0.6-5.9-1.8-7.6
		c-1.2-1.7-3.1-2.6-5.7-2.6c-2.6,0-4.5,0.9-5.8,2.6s-1.9,4.3-1.9,7.6c0,3.3,0.6,5.8,1.9,7.5C356.5,254.1,358.4,255,361,255z"/>
	<path fill="#FFFFFF" d="M388.8,233.2c0.6-0.6,1.3-1.2,2-1.7c0.7-0.5,1.4-1,2.2-1.4c0.8-0.4,1.6-0.7,2.5-0.9s1.8-0.3,2.9-0.3
		c1.7,0,3.2,0.3,4.5,0.9c1.3,0.6,2.4,1.4,3.3,2.4c0.9,1,1.5,2.3,2,3.7c0.5,1.4,0.7,3,0.7,4.7v19.6h-7.4v-19.6c0-1.9-0.4-3.3-1.3-4.4
		c-0.9-1-2.2-1.5-3.9-1.5c-1.3,0-2.5,0.3-3.6,0.9s-2.2,1.4-3.2,2.4v22.3h-7.4v-30.8h4.5c1,0,1.6,0.4,1.9,1.3L388.8,233.2z"/>
	<path fill="#FFFFFF" d="M425.5,260.7c-2.7,0-4.7-0.8-6.2-2.3c-1.4-1.5-2.1-3.6-2.1-6.3V235h-3.2c-0.4,0-0.7-0.1-1-0.4
		c-0.3-0.3-0.4-0.6-0.4-1.2v-2.9l5-0.8l1.6-8.4c0.1-0.4,0.3-0.7,0.6-0.9c0.3-0.2,0.6-0.3,1.1-0.3h3.8v9.7h8.2v5.3h-8.2v16.7
		c0,1,0.2,1.7,0.7,2.3s1.1,0.8,1.9,0.8c0.5,0,0.8-0.1,1.2-0.2c0.3-0.1,0.6-0.2,0.8-0.3c0.2-0.1,0.4-0.2,0.6-0.3
		c0.2-0.1,0.4-0.2,0.5-0.2c0.2,0,0.4,0.1,0.5,0.2c0.1,0.1,0.3,0.3,0.4,0.5l2.2,3.6c-1.1,0.9-2.3,1.6-3.7,2
		C428.5,260.5,427,260.7,425.5,260.7z"/>
	<path fill="#FFFFFF" d="M444.6,234.8c1-1.8,2.1-3.3,3.4-4.3c1.3-1.1,2.9-1.6,4.7-1.6c1.4,0,2.6,0.3,3.4,0.9l-0.5,5.5
		c-0.1,0.4-0.2,0.6-0.4,0.8s-0.4,0.2-0.8,0.2c-0.3,0-0.7,0-1.3-0.1c-0.6-0.1-1.2-0.2-1.7-0.2c-0.8,0-1.5,0.1-2.2,0.4
		c-0.6,0.2-1.2,0.6-1.7,1c-0.5,0.5-1,1-1.3,1.6s-0.8,1.4-1.1,2.2v19h-7.4v-30.8h4.3c0.8,0,1.3,0.1,1.6,0.4c0.3,0.3,0.5,0.8,0.6,1.5
		L444.6,234.8z"/>
	<path fill="#FFFFFF" d="M472.7,229c2.3,0,4.4,0.4,6.2,1.1c1.9,0.7,3.5,1.8,4.8,3.1c1.3,1.4,2.4,3,3.1,5c0.7,2,1.1,4.2,1.1,6.6
		c0,2.4-0.4,4.6-1.1,6.6c-0.7,2-1.7,3.6-3.1,5c-1.3,1.4-2.9,2.4-4.8,3.2s-3.9,1.1-6.2,1.1c-2.3,0-4.4-0.4-6.3-1.1s-3.5-1.8-4.8-3.2
		c-1.3-1.4-2.4-3-3.1-5c-0.7-2-1.1-4.2-1.1-6.6c0-2.4,0.4-4.6,1.1-6.6c0.7-2,1.8-3.6,3.1-5c1.3-1.4,2.9-2.4,4.8-3.1
		C468.3,229.4,470.4,229,472.7,229z M472.7,255c2.6,0,4.5-0.9,5.7-2.6c1.2-1.7,1.8-4.2,1.8-7.6c0-3.3-0.6-5.9-1.8-7.6
		c-1.2-1.7-3.1-2.6-5.7-2.6c-2.6,0-4.5,0.9-5.8,2.6s-1.9,4.3-1.9,7.6c0,3.3,0.6,5.8,1.9,7.5C468.2,254.1,470.1,255,472.7,255z"/>
	<path fill="#FFFFFF" d="M501.1,215.7v44.6h-7.4v-44.6H501.1z"/>
	<path fill="#FFFFFF" d="M523.2,256.2c0-0.6,0.1-1.2,0.3-1.8c0.2-0.6,0.5-1,1-1.4c0.4-0.4,0.9-0.7,1.5-1c0.6-0.2,1.2-0.4,1.8-0.4
		c0.6,0,1.2,0.1,1.8,0.4s1,0.6,1.5,1c0.4,0.4,0.7,0.9,1,1.4c0.2,0.6,0.4,1.2,0.4,1.8c0,0.6-0.1,1.2-0.4,1.8c-0.2,0.6-0.6,1-1,1.4
		c-0.4,0.4-0.9,0.7-1.5,0.9c-0.6,0.2-1.2,0.3-1.8,0.3c-0.6,0-1.2-0.1-1.8-0.3c-0.6-0.2-1-0.5-1.5-0.9c-0.4-0.4-0.7-0.9-1-1.4
		C523.3,257.4,523.2,256.8,523.2,256.2z M531.3,216.9V234c0,1.8-0.1,3.6-0.3,5.4c-0.2,1.8-0.4,3.6-0.7,5.6h-5
		c-0.3-2-0.5-3.8-0.7-5.6c-0.2-1.7-0.3-3.5-0.3-5.4v-17.2H531.3z"/>
</g>
</svg>
